<svg width="11" height="12" viewBox="0 0 11 12" fill="none" xmlns="http://www.w3.org/2000/svg">
<path d="M11 11.4869L10.8033 0.513062H6.08906L0 11.4869H1.72284H3.14261H3.55257L5.47782 8.07535H5.47043L5.45508 8.04351V8.0219C5.45508 7.91728 5.45508 7.81777 5.45508 7.73419C5.45508 7.15309 5.36752 6.8995 5.17192 6.6749C5.127 6.62316 5.07469 6.57483 5.0184 6.52252C4.60617 6.07788 4.40148 5.64404 4.40148 5.19486C4.40205 4.14864 5.2737 3.46974 6.08338 3.46974H8.00863C8.27075 3.46974 8.56415 3.46349 8.85015 3.58972C9.23622 3.7603 9.43523 4.06108 9.49209 4.48809C9.49209 4.58817 9.49209 4.68369 9.49209 4.77182C9.49209 5.05043 9.49209 5.25001 9.49209 5.25001L10.2256 6.34853L9.49209 6.34967V7.98722L8.01375 7.98494V7.98608L7.09831 9.63272L7.81645 11.4869H9.1714H11Z" fill="#1A1A1A"/>
<path d="M8.571 5.51328C8.81265 5.40752 9.0452 5.21193 9.13163 4.88897C9.15437 4.80424 9.16688 4.7218 9.16688 4.61888C9.16688 3.82285 8.39473 3.81091 8.03481 3.81091C7.95578 3.81091 7.88755 3.81091 7.82728 3.81091C7.73573 3.81091 7.62884 3.81091 7.51398 3.81091C7.04148 3.81091 6.42513 3.81091 6.09307 3.81091C5.51765 3.81091 4.79895 4.31014 4.79895 5.16303C4.79895 6.01592 5.86506 6.7204 5.86506 6.7204C5.83663 6.42189 5.74452 6.21947 6.06407 5.89992C6.2193 5.74413 6.53316 5.68727 6.86692 5.63041H8.06665C8.19971 5.63041 8.38791 5.59288 8.571 5.51328Z" fill="#2284FF"/>
<path d="M9.57224 2.24842C9.45909 2.29504 9.36925 2.33769 9.30216 2.37465C9.23506 2.41217 9.18275 2.44913 9.14522 2.48609C9.10827 2.52305 9.07131 2.57479 9.03378 2.64188C8.99625 2.70898 8.95361 2.80052 8.90528 2.91651H8.86661C8.81771 2.80052 8.7745 2.70898 8.73754 2.64188C8.70002 2.57479 8.66306 2.52305 8.62667 2.48609C8.58914 2.44913 8.53683 2.41217 8.46974 2.37465C8.40264 2.33712 8.31224 2.29504 8.19852 2.24842V2.20975C8.3128 2.16313 8.40378 2.12048 8.47087 2.08353C8.53797 2.046 8.58971 2.00904 8.62667 1.97208C8.66306 1.93512 8.70002 1.88338 8.73754 1.81629C8.77507 1.74919 8.81828 1.65765 8.86661 1.54166H8.90528C8.95361 1.65765 8.99625 1.74919 9.03378 1.81629C9.07131 1.88281 9.10827 1.93512 9.14522 1.97208C9.18161 2.00904 9.23336 2.046 9.30045 2.08353C9.36754 2.12105 9.45852 2.16313 9.57281 2.20975V2.24842H9.57224Z" fill="#FFE500"/>
</svg>
