<svg width="12" height="13" viewBox="0 0 12 13" fill="none" xmlns="http://www.w3.org/2000/svg">
<path d="M8.02841 7.07679C10.2553 6.7909 12 4.20099 12 1.04508H10.036C10.058 0.702197 10.0733 0.35495 10.0733 0H1.97873C1.97873 0.35495 1.99362 0.702069 2.01583 1.04521H0C0 4.22602 1.77308 6.83019 4.02627 7.08064C4.17583 7.25189 4.33 7.40671 4.49021 7.53919H4.4069V8.35422H5.21629V10.3919H4.4069V11.2072H3.59738V12.8372H8.4541V11.2069H7.64458V10.3918H6.83506V8.35422H7.64458V7.53919H7.56114C7.72302 7.40555 7.87822 7.24945 8.02841 7.07679ZM11.1474 1.85999C10.9396 3.80984 9.99611 5.40243 8.74987 6.01579C9.34308 4.92578 9.77377 3.48865 9.96311 1.85999H11.1474ZM0.852521 1.85999H2.08836C2.27977 3.50521 2.71764 4.95505 3.32048 6.04904C2.03958 5.46212 1.06434 3.84591 0.852521 1.85999Z" fill="#2FC273"/>
</svg>
