<svg width="24" height="24" viewBox="0 0 24 24" fill="none" xmlns="http://www.w3.org/2000/svg">
<path d="M11.4629 10.7598L6.92969 1.24219H1L6.92969 13.6602C7.40234 12.8581 8.03255 12.1992 8.82031 11.6836C9.60807 11.1536 10.4889 10.8457 11.4629 10.7598ZM17.1777 13.6602L23.1074 1.24219H17.1777L12.6445 10.7598C13.6185 10.8457 14.4993 11.1536 15.2871 11.6836C16.0749 12.1992 16.7051 12.8581 17.1777 13.6602ZM12.0645 14.2617C11.4056 14.2617 10.8398 14.498 10.3672 14.9707C9.90885 15.429 9.67969 15.9805 9.67969 16.625C9.67969 17.2839 9.90885 17.8424 10.3672 18.3008C10.8398 18.7734 11.4056 19.0098 12.0645 19.0098C12.709 19.0098 13.2604 18.7734 13.7188 18.3008C14.1914 17.8424 14.4277 17.2839 14.4277 16.625C14.4277 15.9805 14.1914 15.429 13.7188 14.9707C13.2604 14.498 12.709 14.2617 12.0645 14.2617ZM12.0645 11.4902C11.3483 11.4902 10.6751 11.6263 10.0449 11.8984C9.42904 12.1706 8.88477 12.543 8.41211 13.0156C7.95378 13.474 7.58854 14.0111 7.31641 14.627C7.05859 15.2572 6.92969 15.9232 6.92969 16.625C6.92969 17.3411 7.05859 18.0072 7.31641 18.623C7.58854 19.2533 7.95378 19.7975 8.41211 20.2559C8.88477 20.7285 9.42904 21.0938 10.0449 21.3516C10.6751 21.6237 11.3483 21.7598 12.0645 21.7598C12.7663 21.7598 13.4323 21.6237 14.0625 21.3516C14.6784 21.0938 15.2155 20.7285 15.6738 20.2559C16.1465 19.7975 16.5189 19.2533 16.791 18.623C17.0488 18.0072 17.1777 17.3411 17.1777 16.625C17.1777 15.9232 17.0488 15.2572 16.791 14.627C16.5189 14.0111 16.1465 13.474 15.6738 13.0156C15.2155 12.543 14.6784 12.1706 14.0625 11.8984C13.4323 11.6263 12.7663 11.4902 12.0645 11.4902ZM12.0645 20.1914C11.0762 20.1914 10.2311 19.8405 9.5293 19.1387C8.8418 18.4512 8.49805 17.6133 8.49805 16.625C8.49805 15.6367 8.8418 14.7988 9.5293 14.1113C10.2311 13.4238 11.0762 13.0801 12.0645 13.0801C13.0384 13.0801 13.8691 13.4238 14.5566 14.1113C15.2585 14.7988 15.6094 15.6367 15.6094 16.625C15.6094 17.6133 15.2585 18.4512 14.5566 19.1387C13.8691 19.8405 13.0384 20.1914 12.0645 20.1914Z" fill="red"/>
</svg>
