<svg width="24" height="24" viewBox="0 0 24 24" fill="none" xmlns="http://www.w3.org/2000/svg">
<path d="M17.0433 6.31373C16.625 5.89542 15.9468 5.89542 15.5282 6.31373C15.1099 6.73203 15.1099 7.4103 15.5282 7.82884L15.8422 8.14263H5.57147C4.98001 8.14263 4.5 8.62263 4.5 9.2141C4.5 9.80556 4.98001 10.2856 5.57147 10.2856H15.8422L15.5282 10.5996C15.1099 11.0179 15.1099 11.6962 15.5282 12.1147C15.7377 12.324 16.0116 12.4285 16.2859 12.4285C16.5602 12.4285 16.8341 12.324 17.0433 12.1145L19.1863 9.97153C19.6046 9.55323 19.6046 8.87496 19.1863 8.45642L17.0433 6.31373Z" fill="#0B9B67"/>
<path d="M18.4285 14.5715H8.15775L8.47178 14.2575C8.89008 13.8392 8.89008 13.1609 8.47178 12.7424C8.05395 12.3241 7.37447 12.3241 6.95666 12.7424L4.81373 14.8853C4.39542 15.3036 4.39542 15.9819 4.81373 16.4004L6.95666 18.5434C7.16546 18.7529 7.43978 18.8574 7.7141 18.8574C7.98842 18.8574 8.26274 18.7529 8.47153 18.5434C8.88983 18.1251 8.88983 17.4468 8.47153 17.0283L8.15775 16.7145H18.4285C19.02 16.7145 19.5 16.2345 19.5 15.643C19.5 15.0515 19.02 14.5715 18.4285 14.5715L18.4285 14.5715Z" fill="#E44242"/>
</svg>
